<svg width="35" height="35" version="1.0" viewBox="0 0 300.000000 300.000000" xmlns="http://www.w3.org/2000/svg">
<g transform="translate(0.000000,300.000000) scale(0.100000,-0.100000)" fill="#24292f">
<path d="M905 2745 c-388 -72 -669 -440 -641 -840 27 -403 324 -715 713 -751 39 -4 96 -3 127 0 l56 7 0 232 -1 232 -59 43 -60 44 -68 -50 c-95 -70 -300 -182 -334 -182 -7 0 -48 81 -48 95 0 2 42 23 93 48 98 48 233 132 256 160 12 15 9 22 -21 55 -66 73 -158 230 -158 270 0 8 17 12 54 12 l53 0 45 -77 c25 -43 64 -98 87 -123 l41 -45 38 43 c71 79 146 225 159 308 l6 34 -347 0 -347 0 3 58 3 57 208 3 207 2 0 65 0 65 60 0 60 0 0 -65 0 -65 208 -2 207 -3 3 -57 3 -58 -75 0 -74 0 -7 -32 c-25 -128 -103 -288 -184 -380 -23 -25 -41 -50 -41 -55 0 -4 12 -16 25 -26 24 -17 26 -17 56 5 30 23 37 23 314 26 l284 3 7 56 c9 76 -2 234 -22 308 -107 400 -494 653 -889 580z"/>
<path d="M1303 1705 c-65 -28 -63 -4 -63 -739 l0 -666 29 -32 29 -33 646 -3 c566 -2 650 -1 676 13 62 32 60 10 60 725 0 723 2 703 -65 734 -29 14 -109 16 -657 16 -508 -1 -629 -3 -655 -15z m732 -282 c6 -16 253 -668 311 -821 l24 -63 -66 3 -67 3 -46 130 -46 130 -184 0 -184 0 -46 -130 -46 -130 -62 -3 -62 -3 25 68 c44 118 302 797 309 816 6 14 19 17 70 17 51 0 64 -3 70 -17z"/>
<path d="M1953 1295 c-31 -84 -133 -377 -133 -381 0 -2 65 -4 144 -4 l143 0 -67 193 c-37 105 -69 199 -72 207 -3 9 -8 4 -15 -15z"/>
</g>
</svg>